<?xml version="1.0" encoding="UTF-8"?>
<svg id="Layer_1" data-name="Layer 1" xmlns="http://www.w3.org/2000/svg" viewBox="0 0 1771.91 1692.87">
  <defs>
    <style>
      .cls-1, .cls-2 {
        opacity: .11;
      }

      .cls-2, .cls-3 {
        fill: #001b26;
      }

      .cls-4 {
        fill: #0f3050;
      }

      .cls-5 {
        fill: #4987c7;
      }

      .cls-3, .cls-6 {
        stroke: #001f31;
        stroke-miterlimit: 10;
        stroke-width: 30px;
      }

      .cls-6 {
        fill: #fff;
      }
    </style>
  </defs>
  <rect class="cls-6" x="129.55" y="47.48" width="762.59" height="1630.39" rx="87.5" ry="87.5"/>
  <rect class="cls-6" x="892.14" y="47.48" width="762.59" height="1630.39" rx="87.5" ry="87.5"/>
  <path class="cls-6" d="M42.05,47.48c48.32,0,87.5,39.18,87.5,87.5v1455.39c0,48.32-39.18,87.5-87.5,87.5"/>
  <path class="cls-6" d="M1742.23,47.48c-48.32,0-87.5,39.18-87.5,87.5v1455.39c0,48.32,39.18,87.5,87.5,87.5"/>
  <path class="cls-3" d="M1771.91,966.22h-143.82c-31.73,0-57.45-27.42-57.45-61.24V76.24c0-33.82,25.72-61.24,57.45-61.24h143.82"/>
  <g class="cls-1">
    <path class="cls-4" d="M320.33,1528.68v-712h482.17v143.02h-321.78v130.75h279.89v143.02h-279.89v295.22h-160.39Z"/>
  </g>
  <g class="cls-1">
    <path class="cls-4" d="M1058.28,1528.68v-712h478.08v143.02h-317.69v130.75h302.36v143.02h-302.36v152.2h317.69v143.02h-478.08Z"/>
  </g>
  <path class="cls-5" d="M303.63,1515.8v-712h482.17v143.02h-321.78v130.75h279.89v143.02h-279.89v295.22h-160.39Z"/>
  <path class="cls-5" d="M1041.58,1515.8v-712h478.08v143.02h-317.69v130.75h302.36v143.02h-302.36v152.2h317.69v143.02h-478.08Z"/>
  <path class="cls-3" d="M0,966.22h144.82c31.73,0,57.45-27.42,57.45-61.24V76.24c0-33.82-25.72-61.24-57.45-61.24H0"/>
  <path class="cls-2" d="M42.05,1015.94h147.16c32.24,0,58.38-27.86,58.38-62.23V111.59c0-34.37-26.14-62.23-58.38-62.23H42.05"/>
  <path class="cls-2" d="M1742.23,1015.94h-87.44c-31.73,0-57.45-27.42-57.45-61.24V125.96c0-33.82,25.72-61.24,57.45-61.24h87.44"/>
</svg>